<svg width="16" height="16" viewBox="0 0 16 16" fill="none" xmlns="http://www.w3.org/2000/svg">
<g clip-path="url(#clip0)">
<path d="M13.3323 7.99983C13.3323 8.52097 13.2724 9.0284 13.1591 9.51507C12.4734 12.4668 9.82693 14.6662 6.66636 14.6662C4.48852 14.6662 2.5544 13.6219 1.33813 12.0064C0.498027 10.8912 0 9.5037 0 7.99983C0 6.62996 0.412998 5.35648 1.12183 4.29773C2.31734 2.51055 4.35451 1.33386 6.66636 1.33386C9.92567 1.33386 12.6384 3.67275 13.2179 6.76357C13.2931 7.16443 13.3323 7.57742 13.3323 7.99983Z" fill="#7CCFED"/>
<path d="M15.9679 8.42185C15.9518 8.4822 15.9275 8.53862 15.8942 8.5829C15.4734 9.13422 14.7849 9.41477 14.0929 9.45748L13.1592 9.51508L6.00377 9.95512C6.00377 9.95512 4.31259 11.3708 1.33813 12.0064C0.498028 10.8912 0 9.50372 0 7.99984C0 6.62997 0.412999 5.3565 1.12184 4.29775C2.07283 4.05873 3.15392 3.84126 4.32591 3.69588C4.86978 3.62809 5.74986 3.58225 6.46379 3.55365C7.11855 3.527 7.75137 3.81383 8.1487 4.33458C8.28741 4.51718 8.43552 4.68959 8.59148 4.85338C9.78267 6.1006 11.4594 6.80865 13.2179 6.76359C13.3766 6.75928 13.5357 6.74909 13.6952 6.73264L14.1634 6.68444C15.0008 6.59784 15.7896 7.13819 15.9749 7.95909C15.9804 7.98182 15.9851 8.00455 15.9894 8.02766C15.9902 8.03276 15.9914 8.03864 15.9922 8.04373C16.0055 8.13346 16.0047 8.28784 15.9679 8.42185Z" fill="#009245"/>
<path d="M7.85912 5.07353C7.35803 5.30002 6.76828 5.07741 6.54179 4.57635C7.04284 4.34986 7.63263 4.57247 7.85912 5.07353Z" fill="#4D4D4D"/>
<path d="M6.00356 9.9551C6.00356 9.9551 4.64063 9.56721 3.31171 7.40814C3.31171 7.40814 3.49509 9.36326 5.36048 10.4059L6.00356 9.9551Z" fill="#0A753A"/>
<path d="M15.9679 8.42203C15.5826 8.57351 14.3339 8.98831 12.9539 8.63954C12.8822 8.62155 12.8097 8.60106 12.7374 8.57833C12.6624 8.55541 12.5875 8.53018 12.5121 8.50169C12.4072 8.46305 12.3024 8.41893 12.1975 8.36976C12.1676 8.35588 12.1379 8.34158 12.1083 8.32681C11.6634 8.10511 11.1787 8.00123 10.7061 8.02627C10.35 8.045 9.92788 8.0303 9.45755 7.94598C9.37534 7.93172 9.29153 7.91479 9.2065 7.89528C9.15799 7.88489 9.10936 7.87318 9.06042 7.86087C9.03766 7.85515 9.0145 7.84935 8.99142 7.84308C8.90322 7.82 8.81348 7.79387 8.72246 7.76554C8.64754 7.74215 8.5718 7.71675 8.49551 7.68983C8.41263 7.6599 8.32929 7.62847 8.24485 7.59403L8.24442 7.59391C7.62453 7.34376 6.95867 6.96395 6.27072 6.39966L6.26441 6.39394C5.78358 5.9588 4.8947 5.88757 4.53479 6.25582C4.48891 6.30225 4.42374 6.31828 4.3645 6.30343C4.33487 6.29598 4.30709 6.28125 4.28401 6.25856C4.23758 6.21268 4.22155 6.14751 4.2364 6.08827C4.24385 6.05865 4.25858 6.03082 4.28127 6.00778C4.60344 5.67887 5.18246 5.59016 5.71995 5.72511C6.00627 5.79701 6.28087 5.93212 6.49857 6.12824C7.10522 6.62556 7.69314 6.97218 8.24289 7.2092C8.38689 7.27182 8.52791 7.3264 8.66654 7.37401C8.68543 7.38059 8.70432 7.38714 8.72332 7.39329C8.87355 7.4438 9.02038 7.48612 9.16301 7.5215C9.17417 7.52432 9.1853 7.5271 9.19659 7.52946C9.35101 7.56688 9.50061 7.59622 9.64489 7.61785C10.0349 7.67839 10.3861 7.6885 10.6872 7.6724C11.1904 7.64587 11.7042 7.74794 12.1796 7.9682C12.2087 7.98144 12.2376 7.99551 12.266 8.00954C12.4097 8.08073 12.5533 8.141 12.6969 8.19072C12.701 8.19264 12.7048 8.19405 12.7086 8.19503C12.8587 8.24778 13.0086 8.28908 13.1567 8.32078C14.6194 8.63832 15.9244 8.05738 15.9399 8.05033L15.9894 8.0276C15.9904 8.03289 15.9912 8.03857 15.9922 8.04382C16.0053 8.1334 16.0048 8.28798 15.9679 8.42203Z" fill="#0A753A"/>
<path d="M12.2659 8.00948C12.4096 8.08068 12.5533 8.14094 12.6969 8.19066L12.2714 8.79833L12.1795 7.96814C12.2086 7.98138 12.2375 7.99549 12.2659 8.00948Z" fill="#FFFCD2"/>
<path d="M13.1566 8.32075L12.8107 8.75126L12.7086 8.19501C12.8587 8.24775 13.0085 8.28901 13.1566 8.32075Z" fill="#FFFCD2"/>
<path d="M8.72324 7.39331C8.87347 7.44382 9.02029 7.48614 9.16292 7.52152L8.76853 8.16167L8.72324 7.39331Z" fill="#FFFCD2"/>
<path d="M9.64484 7.61788L9.26547 8.17825L9.19654 7.52948C9.35096 7.5669 9.50057 7.59625 9.64484 7.61788Z" fill="#FFFCD2"/>
<path d="M8.66646 7.37404L8.29401 7.96125L8.29114 7.40742L8.24279 7.20923C8.38684 7.27188 8.52782 7.32647 8.66646 7.37404Z" fill="#FFFCD2"/>
</g>
<defs>
<clipPath id="clip0">
<rect width="16" height="16" fill="white"/>
</clipPath>
</defs>
</svg>
